<svg width="242" height="35" viewBox="0 0 242 35" fill="none" xmlns="http://www.w3.org/2000/svg">
<g filter="url(#filter0_d_0_373)">
<path d="M20.4219 17.8613H23.7969C23.6211 19.4785 23.1582 20.9258 22.4082 22.2031C21.6582 23.4805 20.5977 24.4941 19.2266 25.2441C17.8555 25.9824 16.1445 26.3516 14.0938 26.3516C12.5938 26.3516 11.2285 26.0703 9.99805 25.5078C8.7793 24.9453 7.73047 24.1484 6.85156 23.1172C5.97266 22.0742 5.29297 20.8262 4.8125 19.373C4.34375 17.9082 4.10938 16.2793 4.10938 14.4863V11.9375C4.10938 10.1445 4.34375 8.52148 4.8125 7.06836C5.29297 5.60352 5.97852 4.34961 6.86914 3.30664C7.77148 2.26367 8.85547 1.46094 10.1211 0.898438C11.3867 0.335938 12.8105 0.0546875 14.3926 0.0546875C16.3262 0.0546875 17.9609 0.417969 19.2969 1.14453C20.6328 1.87109 21.6699 2.87891 22.4082 4.16797C23.1582 5.44531 23.6211 6.92773 23.7969 8.61523H20.4219C20.2578 7.41992 19.9531 6.39453 19.5078 5.53906C19.0625 4.67188 18.4297 4.00391 17.6094 3.53516C16.7891 3.06641 15.7168 2.83203 14.3926 2.83203C13.2559 2.83203 12.2539 3.04883 11.3867 3.48242C10.5312 3.91602 9.81055 4.53125 9.22461 5.32812C8.65039 6.125 8.2168 7.08008 7.92383 8.19336C7.63086 9.30664 7.48438 10.543 7.48438 11.9023V14.4863C7.48438 15.7402 7.61328 16.918 7.87109 18.0195C8.14062 19.1211 8.54492 20.0879 9.08398 20.9199C9.62305 21.752 10.3086 22.4082 11.1406 22.8887C11.9727 23.3574 12.957 23.5918 14.0938 23.5918C15.5352 23.5918 16.6836 23.3633 17.5391 22.9062C18.3945 22.4492 19.0391 21.793 19.4727 20.9375C19.918 20.082 20.2344 19.0566 20.4219 17.8613ZM49.625 12.3945V14.0117C49.625 15.9336 49.3848 17.6562 48.9043 19.1797C48.4238 20.7031 47.7324 21.998 46.8301 23.0645C45.9277 24.1309 44.8438 24.9453 43.5781 25.5078C42.3242 26.0703 40.918 26.3516 39.3594 26.3516C37.8477 26.3516 36.459 26.0703 35.1934 25.5078C33.9395 24.9453 32.8496 24.1309 31.9238 23.0645C31.0098 21.998 30.3008 20.7031 29.7969 19.1797C29.293 17.6562 29.041 15.9336 29.041 14.0117V12.3945C29.041 10.4727 29.2871 8.75586 29.7793 7.24414C30.2832 5.7207 30.9922 4.42578 31.9062 3.35938C32.8203 2.28125 33.9043 1.46094 35.1582 0.898438C36.4238 0.335938 37.8125 0.0546875 39.3242 0.0546875C40.8828 0.0546875 42.2891 0.335938 43.543 0.898438C44.8086 1.46094 45.8926 2.28125 46.7949 3.35938C47.709 4.42578 48.4062 5.7207 48.8867 7.24414C49.3789 8.75586 49.625 10.4727 49.625 12.3945ZM46.2676 14.0117V12.3594C46.2676 10.8359 46.1094 9.48828 45.793 8.31641C45.4883 7.14453 45.0371 6.16016 44.4395 5.36328C43.8418 4.56641 43.1094 3.96289 42.2422 3.55273C41.3867 3.14258 40.4141 2.9375 39.3242 2.9375C38.2695 2.9375 37.3145 3.14258 36.459 3.55273C35.6152 3.96289 34.8887 4.56641 34.2793 5.36328C33.6816 6.16016 33.2188 7.14453 32.8906 8.31641C32.5625 9.48828 32.3984 10.8359 32.3984 12.3594V14.0117C32.3984 15.5469 32.5625 16.9062 32.8906 18.0898C33.2188 19.2617 33.6875 20.252 34.2969 21.0605C34.918 21.8574 35.6504 22.4609 36.4941 22.8711C37.3496 23.2812 38.3047 23.4863 39.3594 23.4863C40.4609 23.4863 41.4395 23.2812 42.2949 22.8711C43.1504 22.4609 43.8711 21.8574 44.457 21.0605C45.0547 20.252 45.5059 19.2617 45.8105 18.0898C46.1152 16.9062 46.2676 15.5469 46.2676 14.0117ZM75.8926 0.40625V26H72.4824L59.5977 6.25977V26H56.2051V0.40625H59.5977L72.5352 20.1992V0.40625H75.8926ZM103.092 0.40625V26H99.6816L86.7969 6.25977V26H83.4043V0.40625H86.7969L99.7344 20.1992V0.40625H103.092ZM126.863 23.2402V26H113.311V23.2402H126.863ZM113.996 0.40625V26H110.604V0.40625H113.996ZM125.07 11.4102V14.1699H113.311V11.4102H125.07ZM126.688 0.40625V3.18359H113.311V0.40625H126.688ZM148.016 17.8613H151.391C151.215 19.4785 150.752 20.9258 150.002 22.2031C149.252 23.4805 148.191 24.4941 146.82 25.2441C145.449 25.9824 143.738 26.3516 141.688 26.3516C140.188 26.3516 138.822 26.0703 137.592 25.5078C136.373 24.9453 135.324 24.1484 134.445 23.1172C133.566 22.0742 132.887 20.8262 132.406 19.373C131.938 17.9082 131.703 16.2793 131.703 14.4863V11.9375C131.703 10.1445 131.938 8.52148 132.406 7.06836C132.887 5.60352 133.572 4.34961 134.463 3.30664C135.365 2.26367 136.449 1.46094 137.715 0.898438C138.98 0.335938 140.404 0.0546875 141.986 0.0546875C143.92 0.0546875 145.555 0.417969 146.891 1.14453C148.227 1.87109 149.264 2.87891 150.002 4.16797C150.752 5.44531 151.215 6.92773 151.391 8.61523H148.016C147.852 7.41992 147.547 6.39453 147.102 5.53906C146.656 4.67188 146.023 4.00391 145.203 3.53516C144.383 3.06641 143.311 2.83203 141.986 2.83203C140.85 2.83203 139.848 3.04883 138.98 3.48242C138.125 3.91602 137.404 4.53125 136.818 5.32812C136.244 6.125 135.811 7.08008 135.518 8.19336C135.225 9.30664 135.078 10.543 135.078 11.9023V14.4863C135.078 15.7402 135.207 16.918 135.465 18.0195C135.734 19.1211 136.139 20.0879 136.678 20.9199C137.217 21.752 137.902 22.4082 138.734 22.8887C139.566 23.3574 140.551 23.5918 141.688 23.5918C143.129 23.5918 144.277 23.3633 145.133 22.9062C145.988 22.4492 146.633 21.793 147.066 20.9375C147.512 20.082 147.828 19.0566 148.016 17.8613ZM166.443 0.40625V26H163.104V0.40625H166.443ZM174.67 0.40625V3.18359H154.895V0.40625H174.67ZM183.605 0.40625V26H180.213V0.40625H183.605ZM210.98 12.3945V14.0117C210.98 15.9336 210.74 17.6562 210.26 19.1797C209.779 20.7031 209.088 21.998 208.186 23.0645C207.283 24.1309 206.199 24.9453 204.934 25.5078C203.68 26.0703 202.273 26.3516 200.715 26.3516C199.203 26.3516 197.814 26.0703 196.549 25.5078C195.295 24.9453 194.205 24.1309 193.279 23.0645C192.365 21.998 191.656 20.7031 191.152 19.1797C190.648 17.6562 190.396 15.9336 190.396 14.0117V12.3945C190.396 10.4727 190.643 8.75586 191.135 7.24414C191.639 5.7207 192.348 4.42578 193.262 3.35938C194.176 2.28125 195.26 1.46094 196.514 0.898438C197.779 0.335938 199.168 0.0546875 200.68 0.0546875C202.238 0.0546875 203.645 0.335938 204.898 0.898438C206.164 1.46094 207.248 2.28125 208.15 3.35938C209.064 4.42578 209.762 5.7207 210.242 7.24414C210.734 8.75586 210.98 10.4727 210.98 12.3945ZM207.623 14.0117V12.3594C207.623 10.8359 207.465 9.48828 207.148 8.31641C206.844 7.14453 206.393 6.16016 205.795 5.36328C205.197 4.56641 204.465 3.96289 203.598 3.55273C202.742 3.14258 201.77 2.9375 200.68 2.9375C199.625 2.9375 198.67 3.14258 197.814 3.55273C196.971 3.96289 196.244 4.56641 195.635 5.36328C195.037 6.16016 194.574 7.14453 194.246 8.31641C193.918 9.48828 193.754 10.8359 193.754 12.3594V14.0117C193.754 15.5469 193.918 16.9062 194.246 18.0898C194.574 19.2617 195.043 20.252 195.652 21.0605C196.273 21.8574 197.006 22.4609 197.85 22.8711C198.705 23.2812 199.66 23.4863 200.715 23.4863C201.816 23.4863 202.795 23.2812 203.65 22.8711C204.506 22.4609 205.227 21.8574 205.812 21.0605C206.41 20.252 206.861 19.2617 207.166 18.0898C207.471 16.9062 207.623 15.5469 207.623 14.0117ZM237.248 0.40625V26H233.838L220.953 6.25977V26H217.561V0.40625H220.953L233.891 20.1992V0.40625H237.248Z" fill="#C2C2C2"/>
</g>
<defs>
<filter id="filter0_d_0_373" x="0.109375" y="0.0546875" width="241.139" height="34.2969" filterUnits="userSpaceOnUse" color-interpolation-filters="sRGB">
<feFlood flood-opacity="0" result="BackgroundImageFix"/>
<feColorMatrix in="SourceAlpha" type="matrix" values="0 0 0 0 0 0 0 0 0 0 0 0 0 0 0 0 0 0 127 0" result="hardAlpha"/>
<feOffset dy="4"/>
<feGaussianBlur stdDeviation="2"/>
<feComposite in2="hardAlpha" operator="out"/>
<feColorMatrix type="matrix" values="0 0 0 0 0 0 0 0 0 0 0 0 0 0 0 0 0 0 0.25 0"/>
<feBlend mode="normal" in2="BackgroundImageFix" result="effect1_dropShadow_0_373"/>
<feBlend mode="normal" in="SourceGraphic" in2="effect1_dropShadow_0_373" result="shape"/>
</filter>
</defs>
</svg>
